<svg aria-hidden="true" style="position: absolute; width: 0; height: 0; overflow: hidden;" version="1.1" xmlns="http://www.w3.org/2000/svg" xmlns:xlink="http://www.w3.org/1999/xlink">
<defs>
<symbol id="next" viewBox="0 0 32 32">
<path d="M17.867 16.947c0.125-0.124 0.224-0.271 0.292-0.434s0.103-0.337 0.103-0.513-0.035-0.35-0.103-0.513c-0.068-0.162-0.167-0.31-0.292-0.434l-6.12-6.107c-0.125-0.124-0.224-0.271-0.292-0.434s-0.103-0.337-0.103-0.513c0-0.176 0.035-0.35 0.103-0.513s0.167-0.31 0.292-0.434c0.25-0.248 0.588-0.388 0.94-0.388s0.69 0.139 0.94 0.388l6.12 6.12c0.749 0.75 1.17 1.767 1.17 2.827s-0.421 2.077-1.17 2.827l-6.12 6.12c-0.248 0.246-0.584 0.385-0.933 0.387-0.175 0.001-0.349-0.033-0.512-0.099s-0.31-0.164-0.435-0.288c-0.125-0.124-0.224-0.271-0.292-0.434s-0.103-0.337-0.103-0.513c0-0.176 0.035-0.35 0.103-0.513s0.167-0.31 0.292-0.434l6.12-6.107z"></path>
</symbol>
<symbol id="end" viewBox="0 0 41 32">
<path d="M12.193 6.792c-0.487 0.204-0.822 0.676-0.822 1.227 0 0.183 0.037 0.358 0.104 0.516l-0.003-0.009c0.073 0.176 1.117 1.269 3.339 3.495 2.223 2.225 3.267 3.317 3.339 3.493 0.059 0.141 0.107 0.367 0.107 0.503 0 0.135-0.048 0.36-0.107 0.501-0.072 0.176-1.116 1.268-3.339 3.493-2.221 2.225-3.265 3.319-3.339 3.495-0.355 0.86 0.297 1.844 1.223 1.844 0.543 0 0.783-0.208 4.189-3.632 2.935-2.951 3.3-3.341 3.527-3.78 0.339-0.655 0.463-1.172 0.463-1.923 0-0.749-0.124-1.267-0.463-1.921-0.227-0.439-0.592-0.829-3.527-3.78-3.427-3.445-3.649-3.636-4.205-3.629-0.177 0.009-0.342 0.048-0.495 0.11l0.010-0.004zM21.439 6.829c-0.448 0.239-0.752 0.696-0.772 1.225l-0 0.003c0 0.505 0.264 0.805 3.457 3.945 1.705 1.677 3.175 3.176 3.265 3.331 0.231 0.392 0.231 0.975 0 1.367-0.092 0.155-1.563 1.653-3.268 3.331-3.373 3.317-3.516 3.487-3.436 4.083 0.121 0.897 0.988 1.451 1.792 1.144 0.233-0.089 0.98-0.801 3.681-3.505l3.388-3.393 0.272-0.585c0.577-1.247 0.577-2.267 0-3.513l-0.272-0.585-3.355-3.367c-2.259-2.265-3.445-3.408-3.631-3.495-0.16-0.078-0.347-0.123-0.545-0.123-0.211 0-0.41 0.051-0.585 0.143l0.007-0.003z"></path>
</symbol>
</defs>
</svg>
